<mxfile host="app.diagrams.net" modified="2024-03-30T23:28:06.128Z" agent="Mozilla/5.0 (Windows NT 10.0; Win64; x64) AppleWebKit/537.36 (KHTML, like Gecko) Chrome/116.0.0.0 Safari/537.36" etag="WmWoaewws3jCmMwram3S" version="24.2.1" type="device">
  <diagram name="Page-1" id="5Z7APpFcgfUc6ZyuO-cr">
    <mxGraphModel dx="1914" dy="1140" grid="1" gridSize="10" guides="1" tooltips="1" connect="1" arrows="1" fold="1" page="1" pageScale="1" pageWidth="827" pageHeight="1169" math="0" shadow="0">
      <root>
        <mxCell id="0" />
        <mxCell id="1" parent="0" />
        <mxCell id="42mja_NqprVF22DPiqrY-61" value="" style="sketch=0;pointerEvents=1;shadow=0;dashed=0;html=1;strokeColor=none;fillColor=#505050;labelPosition=center;verticalLabelPosition=bottom;verticalAlign=top;outlineConnect=0;align=center;shape=mxgraph.office.services.3rd_party_service;" vertex="1" parent="1">
          <mxGeometry x="10" y="44" width="53" height="54" as="geometry" />
        </mxCell>
        <mxCell id="42mja_NqprVF22DPiqrY-62" value="" style="sketch=0;pointerEvents=1;shadow=0;dashed=0;html=1;strokeColor=none;fillColor=#505050;labelPosition=center;verticalLabelPosition=bottom;verticalAlign=top;outlineConnect=0;align=center;shape=mxgraph.office.services.access_services;" vertex="1" parent="1">
          <mxGeometry x="80" y="44" width="59" height="49" as="geometry" />
        </mxCell>
        <mxCell id="42mja_NqprVF22DPiqrY-63" value="" style="sketch=0;pointerEvents=1;shadow=0;dashed=0;html=1;strokeColor=none;fillColor=#505050;labelPosition=center;verticalLabelPosition=bottom;verticalAlign=top;outlineConnect=0;align=center;shape=mxgraph.office.services.business_connectivity_services;" vertex="1" parent="1">
          <mxGeometry x="164" y="43" width="34" height="51" as="geometry" />
        </mxCell>
        <mxCell id="42mja_NqprVF22DPiqrY-64" value="" style="sketch=0;pointerEvents=1;shadow=0;dashed=0;html=1;strokeColor=none;fillColor=#505050;labelPosition=center;verticalLabelPosition=bottom;verticalAlign=top;outlineConnect=0;align=center;shape=mxgraph.office.services.call_admission_control_service;" vertex="1" parent="1">
          <mxGeometry x="235" y="35" width="50" height="59" as="geometry" />
        </mxCell>
        <mxCell id="42mja_NqprVF22DPiqrY-65" value="" style="sketch=0;pointerEvents=1;shadow=0;dashed=0;html=1;strokeColor=none;fillColor=#505050;labelPosition=center;verticalLabelPosition=bottom;verticalAlign=top;outlineConnect=0;align=center;shape=mxgraph.office.services.central_management_service;" vertex="1" parent="1">
          <mxGeometry x="314" y="41.5" width="51" height="54" as="geometry" />
        </mxCell>
        <mxCell id="42mja_NqprVF22DPiqrY-66" value="" style="sketch=0;pointerEvents=1;shadow=0;dashed=0;html=1;strokeColor=none;fillColor=#505050;labelPosition=center;verticalLabelPosition=bottom;verticalAlign=top;outlineConnect=0;align=center;shape=mxgraph.office.services.conference_announcement_service;" vertex="1" parent="1">
          <mxGeometry x="10" y="135.5" width="59" height="59" as="geometry" />
        </mxCell>
        <mxCell id="42mja_NqprVF22DPiqrY-67" value="" style="sketch=0;pointerEvents=1;shadow=0;dashed=0;html=1;strokeColor=none;fillColor=#505050;labelPosition=center;verticalLabelPosition=bottom;verticalAlign=top;outlineConnect=0;align=center;shape=mxgraph.office.services.device_update_service;" vertex="1" parent="1">
          <mxGeometry x="84.5" y="135.5" width="50" height="54" as="geometry" />
        </mxCell>
        <mxCell id="42mja_NqprVF22DPiqrY-68" value="" style="sketch=0;pointerEvents=1;shadow=0;dashed=0;html=1;strokeColor=none;fillColor=#505050;labelPosition=center;verticalLabelPosition=bottom;verticalAlign=top;outlineConnect=0;align=center;shape=mxgraph.office.services.email_service;" vertex="1" parent="1">
          <mxGeometry x="158" y="135.5" width="58" height="48" as="geometry" />
        </mxCell>
        <mxCell id="42mja_NqprVF22DPiqrY-69" value="" style="sketch=0;pointerEvents=1;shadow=0;dashed=0;html=1;strokeColor=none;fillColor=#505050;labelPosition=center;verticalLabelPosition=bottom;verticalAlign=top;outlineConnect=0;align=center;shape=mxgraph.office.services.excel_services;" vertex="1" parent="1">
          <mxGeometry x="231" y="135" width="60" height="49" as="geometry" />
        </mxCell>
        <mxCell id="42mja_NqprVF22DPiqrY-70" value="" style="sketch=0;pointerEvents=1;shadow=0;dashed=0;html=1;strokeColor=none;fillColor=#505050;labelPosition=center;verticalLabelPosition=bottom;verticalAlign=top;outlineConnect=0;align=center;shape=mxgraph.office.services.federation_service;" vertex="1" parent="1">
          <mxGeometry x="314" y="130" width="58" height="59" as="geometry" />
        </mxCell>
        <mxCell id="42mja_NqprVF22DPiqrY-71" value="" style="sketch=0;pointerEvents=1;shadow=0;dashed=0;html=1;strokeColor=none;fillColor=#505050;labelPosition=center;verticalLabelPosition=bottom;verticalAlign=top;outlineConnect=0;align=center;shape=mxgraph.office.services.lync_storage_service;" vertex="1" parent="1">
          <mxGeometry x="10" y="218.5" width="65" height="58" as="geometry" />
        </mxCell>
        <mxCell id="42mja_NqprVF22DPiqrY-72" value="" style="sketch=0;pointerEvents=1;shadow=0;dashed=0;html=1;strokeColor=none;fillColor=#505050;labelPosition=center;verticalLabelPosition=bottom;verticalAlign=top;outlineConnect=0;align=center;shape=mxgraph.office.services.lync_web_app_client;" vertex="1" parent="1">
          <mxGeometry x="80" y="222" width="83" height="51" as="geometry" />
        </mxCell>
        <mxCell id="42mja_NqprVF22DPiqrY-73" value="" style="sketch=0;pointerEvents=1;shadow=0;dashed=0;html=1;strokeColor=none;fillColor=#505050;labelPosition=center;verticalLabelPosition=bottom;verticalAlign=top;outlineConnect=0;align=center;shape=mxgraph.office.services.mobility_service;" vertex="1" parent="1">
          <mxGeometry x="171" y="220" width="45" height="53" as="geometry" />
        </mxCell>
        <mxCell id="42mja_NqprVF22DPiqrY-74" value="" style="sketch=0;pointerEvents=1;shadow=0;dashed=0;html=1;strokeColor=none;fillColor=#505050;labelPosition=center;verticalLabelPosition=bottom;verticalAlign=top;outlineConnect=0;align=center;shape=mxgraph.office.services.network_file_share_service;" vertex="1" parent="1">
          <mxGeometry x="231" y="222" width="55" height="53" as="geometry" />
        </mxCell>
        <mxCell id="42mja_NqprVF22DPiqrY-75" value="" style="sketch=0;pointerEvents=1;shadow=0;dashed=0;html=1;strokeColor=none;fillColor=#505050;labelPosition=center;verticalLabelPosition=bottom;verticalAlign=top;outlineConnect=0;align=center;shape=mxgraph.office.services.online_hosted_services;" vertex="1" parent="1">
          <mxGeometry x="312" y="230" width="56" height="52" as="geometry" />
        </mxCell>
        <mxCell id="42mja_NqprVF22DPiqrY-82" value="" style="sketch=0;pointerEvents=1;shadow=0;dashed=0;html=1;strokeColor=none;fillColor=#505050;labelPosition=center;verticalLabelPosition=bottom;verticalAlign=top;outlineConnect=0;align=center;shape=mxgraph.office.services.outlook_web_app;" vertex="1" parent="1">
          <mxGeometry x="1.5" y="316" width="83" height="51" as="geometry" />
        </mxCell>
        <mxCell id="42mja_NqprVF22DPiqrY-83" value="" style="sketch=0;pointerEvents=1;shadow=0;dashed=0;html=1;strokeColor=none;fillColor=#505050;labelPosition=center;verticalLabelPosition=bottom;verticalAlign=top;outlineConnect=0;align=center;shape=mxgraph.office.services.powerpoint_automation_services;" vertex="1" parent="1">
          <mxGeometry x="84.5" y="320" width="59" height="49" as="geometry" />
        </mxCell>
        <mxCell id="42mja_NqprVF22DPiqrY-84" value="" style="sketch=0;pointerEvents=1;shadow=0;dashed=0;html=1;strokeColor=none;fillColor=#505050;labelPosition=center;verticalLabelPosition=bottom;verticalAlign=top;outlineConnect=0;align=center;shape=mxgraph.office.services.push_notification_service;" vertex="1" parent="1">
          <mxGeometry x="166" y="316" width="50" height="58" as="geometry" />
        </mxCell>
        <mxCell id="42mja_NqprVF22DPiqrY-85" value="" style="sketch=0;pointerEvents=1;shadow=0;dashed=0;html=1;strokeColor=none;fillColor=#505050;labelPosition=center;verticalLabelPosition=bottom;verticalAlign=top;outlineConnect=0;align=center;shape=mxgraph.office.services.registrar_service;" vertex="1" parent="1">
          <mxGeometry x="233" y="321" width="56" height="52" as="geometry" />
        </mxCell>
        <mxCell id="42mja_NqprVF22DPiqrY-86" value="" style="sketch=0;pointerEvents=1;shadow=0;dashed=0;html=1;strokeColor=none;fillColor=#505050;labelPosition=center;verticalLabelPosition=bottom;verticalAlign=top;outlineConnect=0;align=center;shape=mxgraph.office.services.response_group_service;" vertex="1" parent="1">
          <mxGeometry x="320" y="320" width="58" height="54" as="geometry" />
        </mxCell>
        <mxCell id="42mja_NqprVF22DPiqrY-87" value="" style="sketch=0;pointerEvents=1;shadow=0;dashed=0;html=1;strokeColor=none;fillColor=#505050;labelPosition=center;verticalLabelPosition=bottom;verticalAlign=top;outlineConnect=0;align=center;shape=mxgraph.office.services.word_automation_services;" vertex="1" parent="1">
          <mxGeometry x="320" y="409" width="60" height="49" as="geometry" />
        </mxCell>
        <mxCell id="42mja_NqprVF22DPiqrY-88" value="" style="sketch=0;pointerEvents=1;shadow=0;dashed=0;html=1;strokeColor=none;fillColor=#505050;labelPosition=center;verticalLabelPosition=bottom;verticalAlign=top;outlineConnect=0;align=center;shape=mxgraph.office.services.web_services;" vertex="1" parent="1">
          <mxGeometry x="235" y="402" width="60" height="56" as="geometry" />
        </mxCell>
        <mxCell id="42mja_NqprVF22DPiqrY-89" value="" style="sketch=0;pointerEvents=1;shadow=0;dashed=0;html=1;strokeColor=none;fillColor=#505050;labelPosition=center;verticalLabelPosition=bottom;verticalAlign=top;outlineConnect=0;align=center;shape=mxgraph.office.services.verification_service;" vertex="1" parent="1">
          <mxGeometry x="166" y="399" width="57" height="59" as="geometry" />
        </mxCell>
        <mxCell id="42mja_NqprVF22DPiqrY-90" value="" style="sketch=0;pointerEvents=1;shadow=0;dashed=0;html=1;strokeColor=none;fillColor=#505050;labelPosition=center;verticalLabelPosition=bottom;verticalAlign=top;outlineConnect=0;align=center;shape=mxgraph.office.services.user_services;" vertex="1" parent="1">
          <mxGeometry x="84.5" y="396" width="59" height="59" as="geometry" />
        </mxCell>
        <mxCell id="42mja_NqprVF22DPiqrY-91" value="" style="sketch=0;pointerEvents=1;shadow=0;dashed=0;html=1;strokeColor=none;fillColor=#505050;labelPosition=center;verticalLabelPosition=bottom;verticalAlign=top;outlineConnect=0;align=center;shape=mxgraph.office.services.skype_for_business_storage_service;" vertex="1" parent="1">
          <mxGeometry x="13" y="400" width="62" height="58" as="geometry" />
        </mxCell>
        <mxCell id="42mja_NqprVF22DPiqrY-92" value="" style="sketch=0;pointerEvents=1;shadow=0;dashed=0;html=1;strokeColor=none;fillColor=#505050;labelPosition=center;verticalLabelPosition=bottom;verticalAlign=top;outlineConnect=0;align=center;shape=mxgraph.office.services.xmpp_service;" vertex="1" parent="1">
          <mxGeometry x="7.5" y="500" width="58" height="52" as="geometry" />
        </mxCell>
      </root>
    </mxGraphModel>
  </diagram>
</mxfile>
